<svg id="Layer_1" data-name="Layer 1" xmlns="http://www.w3.org/2000/svg" xmlns:xlink="http://www.w3.org/1999/xlink" viewBox="0 0 1200 1200"><defs><style>.cls-1,.cls-7{fill:none;}.cls-2{fill:#e9e8e8;}.cls-3{fill:#1d252e;}.cls-4{fill:#4169e1;}.cls-5{clip-path:url(#clip-path);}.cls-6{fill:#fff;}.cls-7{stroke:#1d252e;stroke-miterlimit:10;stroke-width:4px;}</style><clipPath id="clip-path"><circle class="cls-1" cx="559.83" cy="526.38" r="221.76"/></clipPath></defs><path id="Path-141" class="cls-2" d="M441.86,548.9c110.69-74.84,365-274.08,498.13-158.15s60.26,672.6-332,612.66c-147.36-22.52-370-34.95-401.22-104C154.88,784.55,372.75,595.62,441.86,548.9Z"/><rect class="cls-3" x="280.56" y="522.52" width="547.59" height="8" transform="translate(-82.17 950.04) rotate(-77.16)"/><circle class="cls-4" cx="564.71" cy="524.76" r="221.76"/><g class="cls-5"><path class="cls-3" d="M676.64,454.94c1.49-14.9-17.08-46.68-63.76-31.88s-78.56,67.18-42.13,111.58,45.54,80.84,29.6,109.31S595.8,702,623.13,686.07s101.33-74,110.44-107-12.53-71.73-18.22-79.7S675.5,466.33,676.64,454.94Z"/><path class="cls-3" d="M759.75,406c-31.88,14.81-63.76,19.36-64.89,31.88S705.1,468.61,722.18,480s28.47,29.6,27.33,38.71c-4.56,50.1,10.24,74,21.63,82S816.68,437.86,790.5,414,759.75,406,759.75,406Z"/><path class="cls-3" d="M442.4,473.65c1.64,3.46,4.3,6.41,5.52,10s.88,7.62.51,11.46q-1.77,18.33-3.53,36.66c-1.08,11.18-2.83,23.65-11.69,30.55-10.16,7.93-27.7,6.84-32.64,18.74-2.23,5.36-.78,11.43-.33,17.21a49.46,49.46,0,0,1-21.19,43.94c-7.39,5-17.13,7.85-25.25,4.16-4-1.83-7.25-5.07-10.21-8.38-27.4-30.59-41.11-71.93-42.63-113-1.71-45.91,8-144.55,64.91-156.56,22-4.64,44.05,5.44,58.44,22a71.58,71.58,0,0,1,17,38.37C443.11,442.83,436.27,460.7,442.4,473.65Z"/><path class="cls-3" d="M595.23,368.2c2.46-2.31,4.32-5.22,6.92-7.36,11.33-9.36,28-.12,42.73,0,18.84.08,34-15.65,43.17-32.13,1.54-2.78,3-5.76,3-8.94,0-27.48-153.61-49.05-193.58-29.86s29.07,41.59,34.88,59.32C538.94,369.23,579,383.46,595.23,368.2Z"/><path class="cls-3" d="M405.48,645c6.92-13.55,13.09-28.54,25.67-37.09,5.59-3.8,13.09-6,19.06-2.84,3.11,1.66,5.35,4.53,8,6.9,9.3,8.47,26.06-4.2,34.49,2s2.2,14.69,3,21.17c.37,3,.78,6.07,2.33,8.65,1.3,2.17,3.31,3.8,5.14,5.54,10.83,10.31,16,25,23.53,37.93s19.89,25.25,34.82,24.57c3.83-.18,8.73-.68,10.42,2.76.82,1.67.43,3.65,0,5.47-2.27,10.22-4.91,21.11-12.59,28.24-9.63,9-24.19,9.36-37.34,9.26-21.29-.18-43.78-.68-61.92-11.83-18.66-11.47-31.51-33.51-53.06-37.45-7.69-1.41-15.71-.25-23.33-2-14.56-3.4-17.94-18.15-8.61-28.87C385.57,665.32,397.52,660.59,405.48,645Z"/></g><path class="cls-3" d="M588.41,808.09a276.54,276.54,0,0,1-61.18-6.9l-34.53-7.84L497.31,773l34.53,7.84A253.16,253.16,0,1,0,643.93,287.12l-34.53-7.84L614,259l34.53,7.84a274.06,274.06,0,0,1-60.13,541.29Z"/><path class="cls-6" d="M436.15,895.16H629.21a17.74,17.74,0,0,1,17.74,17.74v28.42a0,0,0,0,1,0,0H418.41a0,0,0,0,1,0,0V912.89A17.74,17.74,0,0,1,436.15,895.16Z"/><path class="cls-7" d="M627,895.16h2.25a17.73,17.73,0,0,1,17.73,17.73v28.43H418.41V912.89a17.74,17.74,0,0,1,17.74-17.73h4.65"/><rect class="cls-3" x="447.94" y="865" width="169.47" height="43.03"/><rect class="cls-3" x="523.54" y="791.03" width="12" height="76.34"/><circle class="cls-7" cx="561.63" cy="526.3" r="221.76"/><rect class="cls-3" x="584.93" y="292.53" width="41.52" height="27.98" rx="13.87" transform="translate(68.67 -108.72) rotate(10.87)"/><rect class="cls-3" x="484.1" y="733.05" width="41.52" height="27.98" rx="13.87" transform="translate(843.76 1582.58) rotate(-168.03)"/></svg>